# Made in Blockbench 4.10.4
mtllib LIGHT_BAR_BASE_01.mtl

o cuboid
v 1.4375 0.5 0.0625
v 1.4375 0.5 -0.0625
v 1.4375 0 0.0625
v 1.4375 0 -0.0625
v 1.4375 0.4375 -0.0625
v -1.4375 0.4375 -0.0625
v -1.5 0.4375 -0.0625
v -1.5 0.4375 0.0625
v -1.4375 0.4375 0.0625
v 1.4375 0.4375 0.0625
v 1.5 0.4375 0.0625
v 1.5 0.4375 -0.0625
v 1.5 0.0625 -0.0625
v 1.5 0.0625 0.0625
v 1.4375 0.0625 0.0625
v -1.4375 0.0625 0.0625
v -1.5 0.0625 0.0625
v -1.5 0.0625 -0.0625
v -1.4375 0.0625 -0.0625
v 1.4375 0.0625 -0.0625
v -1.4375 0.5 -0.0625
v -1.4375 0.5 0.0625
v -1.4375 0 0.0625
v -1.4375 0 -0.0625
v -1.4375 0 0.0625
v -1.4375 0 -0.0625
v -1.4375 0.5 0.0625
v -1.4375 0.5 -0.0625
vt 0 0.75
vt 0 0.625
vt 3 0.625
vt 3 0.75
vt 0 0.75
vt 0 0.625
vt 3 0.625
vt 3 0.75
vt 0 0.75
vt 0 0.625
vt 1.5 0.625
vt 1.5 0.75
vt 1.5 0.75
vt 1.5 0.625
vt 3 0.625
vt 3 0.75
vt 1.5 -2
vt 2.25 -2
vt 2.25 1
vt 1.5 1
vt 1.5 0.75
vt 1.5 0.625
vt 2.25 0.625
vt 2.25 0.75
vt 1.5 -2
vt 2.25 -2
vt 2.25 1
vt 1.5 1
vt 0.75 0.75
vt 0.75 0.625
vt 1.5 0.625
vt 1.5 0.75
vt 2.25 0.75
vt 2.25 0.625
vt 3 0.625
vt 3 0.75
vt 0 0.75
vt 0 0.625
vt 0.75 0.625
vt 0.75 0.75
vt 0.75 1
vt 0.75 0.75
vt 1.5 0.75
vt 1.5 1
vt 1.5 1
vt 1.5 0.75
vt 3 0.75
vt 3 1
vt 0 1
vt 0 0.75
vt 3 0.75
vt 3 1
vt 0 1
vt 0 0.75
vt 1.5 0.75
vt 1.5 1
vt 1.5 1
vt 1.5 0.75
vt 2.25 0.75
vt 2.25 1
vt 2.25 0.75
vt 3 0.75
vt 3 1
vt 0 1
vt 0 0.75
vt 3 0.75
vt 3 1
vt 0 1
vt 0 0.75
vt 0.75 0.75
vt 3 0.5
vt 3 0.625
vt 0 0.625
vt 0 0.5
vt 3 0.5
vt 3 0.625
vt 2.25 0.625
vt 2.25 0.5
vt 2.25 0.625
vt 1.5 0.625
vt 1.5 0.5
vt 1.5 0.5
vt 1.5 0.625
vt 0 0.625
vt 0 0.5
vt 3 0.5
vt 3 0.625
vt 0 0.625
vt 0 0.5
vt 3 0.5
vt 3 0.625
vt 1.5 0.625
vt 1.5 0.5
vt 1.5 0.5
vt 1.5 0.625
vt 0.75 0.625
vt 0.75 0.5
vt 0.75 0.625
vt 0 0.625
vt 0 0.5
vt 0 -2
vt 1.5 1
vt 1.5 -2
vt 0 1
vt 0 -2
vt 1.5 1
vt 1.5 -2
vt 0 1
vn 1 0 0
vn -1 0 0
vn 0 0 1
vn 0 0 -1
vn 0 1 0
vn 0 0 1
vn 0 -1 0
vn 0 0 -1
vn 0 0 1
vn 0 0 -1
vn 0 0 -1
vn 0 0 -1
vn -0.7071067811865476 0.7071067811865476 0
vn 0 0 1
vn 0 0 1
vn 0 0 1
vn 0.7071067811865476 0.7071067811865476 0
vn 0 0 -1
vn 0.7071067811865476 -0.7071067811865476 0
vn 0 0 1
vn 0 0 1
vn 0 0 1
vn -0.7071067811865476 -0.7071067811865476 0
vn 0 0 -1
vn 0 0 -1
vn 0 0 -1
vn 0 0 0
vn 0 0 0
usemtl none
f 11/1/1 14/2/1 13/3/1 12/4/1
f 7/5/2 18/6/2 17/7/2 8/8/2
f 8/9/3 17/10/3 16/11/3 9/12/3
f 6/13/4 19/14/4 18/15/4 7/16/4
f 22/17/5 1/18/5 2/19/5 21/20/5
f 9/21/6 16/22/6 15/23/6 10/24/6
f 24/25/7 4/26/7 3/27/7 23/28/7
f 5/29/8 20/30/8 19/31/8 6/32/8
f 10/33/9 15/34/9 14/35/9 11/36/9
f 12/37/10 13/38/10 20/39/10 5/40/10
f 2/41/11 5/42/11 6/43/11 21/44/11
f 21/45/12 6/46/12 7/47/12 28/48/12
f 28/49/13 7/50/13 8/51/13 27/52/13
f 27/53/14 8/54/14 9/55/14 22/56/14
f 22/57/15 9/58/15 10/59/15 1/60/15
f 10/61/16 11/62/16 1/63/16
f 1/64/17 11/65/17 12/66/17 2/67/17
f 2/68/18 12/69/18 5/70/18
f 4/71/19 13/72/19 14/73/19 3/74/19
f 3/75/20 14/76/20 15/77/20
f 3/78/21 15/79/21 16/80/21 23/81/21
f 23/82/22 16/83/22 17/84/22 25/85/22
f 25/86/23 17/87/23 18/88/23 26/89/23
f 26/90/24 18/91/24 19/92/24 24/93/24
f 24/94/25 19/95/25 20/96/25 4/97/25
f 20/98/26 13/99/26 4/100/26
f 26/101/27 23/102/27 24/103/27 25/104/27
f 27/105/28 21/106/28 22/107/28 28/108/28