# Made in Blockbench 4.10.4
mtllib LIGHT_BAR_TOP_01.mtl

o cuboid
v 1.375 0.4375 -0.0625
v 1.375 0.4375 -0.125
v 1.375 0.0625 -0.0625
v 1.375 0.0625 -0.125
v -1.375 0.4375 -0.0625
v -1.375 0.4375 -0.125
v -1.375 0.0625 -0.0625
v -1.375 0.0625 -0.125
v -1.375 0.4375 -0.125
v -1.375 0.4375 -0.0625
v -1.375 0.0625 -0.0625
v -1.375 0.0625 -0.125
v 1.375 0.375 -0.125
v -1.375 0.375 -0.125
v -1.4375 0.375 -0.125
v -1.4375 0.375 -0.0625
v -1.375 0.375 -0.0625
v 1.375 0.375 -0.0625
v 1.4375 0.375 -0.0625
v 1.4375 0.375 -0.125
v 1.375 0.125 -0.125
v -1.375 0.125 -0.125
v -1.4375 0.125 -0.125
v -1.4375 0.125 -0.0625
v -1.375 0.125 -0.0625
v 1.375 0.125 -0.0625
v 1.4375 0.125 -0.0625
v 1.4375 0.125 -0.125
vt 3 0.5
vt 3 0.625
vt 0 0.625
vt 0 0.5
vt 3 0.5
vt 3 0.625
vt 0 0.625
vt 0 0.5
vt 1.5 0.5
vt 0 0.625
vt 1.5 0.625
vt 0 0.5
vt 3 0.5
vt 1.5 0.625
vt 3 0.625
vt 1.5 0.5
vt 1.5 -2
vt 2.25 -2
vt 2.25 1
vt 1.5 1
vt 2.25 0.5
vt 2.25 0.625
vt 1.5 0.625
vt 1.5 0.5
vt 1.5 -2
vt 2.25 -2
vt 2.25 1
vt 1.5 1
vt 1.5 0.5
vt 1.5 0.625
vt 0.75 0.625
vt 0.75 0.5
vt 3 0.5
vt 2.25 0.625
vt 3 0.625
vt 0 0.625
vt 0.75 0.625
vt 0 0.5
vt 0 -2
vt 1.5 1
vt 1.5 -2
vt 0 1
vt 0 -2
vt 1.5 1
vt 1.5 -2
vt 0 1
vt 0.75 1
vt 0.75 0.75
vt 1.5 0.75
vt 1.5 1
vt 1.5 1
vt 1.5 0.75
vt 3 0.75
vt 3 1
vt 0 1
vt 0 0.75
vt 3 0.75
vt 3 1
vt 0 1
vt 0 0.75
vt 1.5 0.75
vt 1.5 1
vt 1.5 1
vt 1.5 0.75
vt 2.25 0.75
vt 2.25 1
vt 2.25 0.75
vt 3 0.75
vt 3 1
vt 0 1
vt 0 0.75
vt 3 0.75
vt 3 1
vt 0 1
vt 0 0.75
vt 0.75 0.75
vt 0.75 0.75
vt 0.75 0.625
vt 1.5 0.625
vt 1.5 0.75
vt 1.5 0.75
vt 1.5 0.625
vt 3 0.625
vt 3 0.75
vt 0 0.75
vt 0 0.625
vt 3 0.625
vt 3 0.75
vt 0 0.75
vt 0 0.625
vt 1.5 0.625
vt 1.5 0.75
vt 1.5 0.75
vt 1.5 0.625
vt 2.25 0.625
vt 2.25 0.75
vt 2.25 0.75
vt 2.25 0.625
vt 3 0.625
vt 3 0.75
vt 0 0.75
vt 0 0.625
vt 3 0.625
vt 3 0.75
vt 0 0.75
vt 0 0.625
vt 0.75 0.625
vt 0.75 0.75
vn 0.7071067811865476 -0.7071067811865476 0
vn -0.7071067811865476 -0.7071067811865476 0
vn 0 0 -1
vn 0 0 1
vn 0 1 0
vn 0 0 1
vn 0 -1 0
vn 0 0 -1
vn 0 0 -1
vn 0 0 1
vn 0 0 0
vn 0 0 0
vn 0 0 -1
vn 0 0 -1
vn -0.7071067811865476 0.7071067811865476 0
vn 0 0 1
vn 0 0 1
vn 0 0 1
vn 0.7071067811865476 0.7071067811865476 0
vn 0 0 -1
vn 0 0 -1
vn 0 0 -1
vn -1 0 0
vn 0 0 1
vn 0 0 1
vn 0 0 1
vn 1 0 0
vn 0 0 -1
usemtl none
f 4/1/1 28/2/1 27/3/1 3/4/1
f 7/5/2 24/6/2 23/7/2 8/8/2
f 11/9/3 24/10/3 25/11/3 7/12/3
f 8/13/4 22/14/4 23/15/4 12/16/4
f 10/17/5 1/18/5 2/19/5 9/20/5
f 3/21/6 26/22/6 25/23/6 11/24/6
f 12/25/7 4/26/7 3/27/7 11/28/7
f 12/29/8 22/30/8 21/31/8 4/32/8
f 3/33/9 26/34/9 27/35/9
f 28/36/10 21/37/10 4/38/10
f 5/39/11 9/40/11 10/41/11 6/42/11
f 8/43/12 11/44/12 12/45/12 7/46/12
f 2/47/13 13/48/13 14/49/13 9/50/13
f 9/51/14 14/52/14 15/53/14 6/54/14
f 6/55/15 15/56/15 16/57/15 5/58/15
f 5/59/16 16/60/16 17/61/16 10/62/16
f 10/63/17 17/64/17 18/65/17 1/66/17
f 18/67/18 19/68/18 1/69/18
f 1/70/19 19/71/19 20/72/19 2/73/19
f 2/74/20 20/75/20 13/76/20
f 13/77/21 21/78/21 22/79/21 14/80/21
f 14/81/22 22/82/22 23/83/22 15/84/22
f 15/85/23 23/86/23 24/87/23 16/88/23
f 16/89/24 24/90/24 25/91/24 17/92/24
f 17/93/25 25/94/25 26/95/25 18/96/25
f 18/97/26 26/98/26 27/99/26 19/100/26
f 19/101/27 27/102/27 28/103/27 20/104/27
f 20/105/28 28/106/28 21/107/28 13/108/28