# Made in Blockbench 4.10.4
mtllib DOORWAY.mtl

o cuboid
v -1.96875 3.125 0.1875
v -1.96875 3.125 -0.25
v -1.96875 -4.875 0.1875
v -1.96875 -4.875 -0.25
v -2.46875 -4.875 0.1875
v -2.46875 -4.875 -0.25
v -2.46875 3.125 0.1875
v -2.46875 3.125 -0.25
v 2.03125 3.625 -0.25
v 2.03125 3.625 0.1875
v 2.03125 3.125 0.1875
v 2.03125 3.125 -0.25
v 2.53125 3.125 -0.25
v 2.53125 3.125 0.1875
v 2.53125 -4.875 -0.25
v 2.53125 -4.875 0.1875
v 2.03125 -4.875 0.1875
v 2.03125 -4.875 -0.25
v -1.96875 3.625 0.1875
v -1.96875 3.625 -0.25
vt 1 1
vt 0 1
vt 0 0
vt 1 0
vt 1 0
vt 1 1
vt 0 1
vt 0 0
vt 0 0
vt 1 0
vt 1 1
vt 0 1
vt 1 0
vt 1 1
vt 0 1
vt 0 0
vt 1 0
vt 1 1
vt 0 1
vt 0 0
vt 1 1
vt 0 1
vt 0 0
vt 1 0
vt 0.328125 0.5
vt 0.203125 0.5
vt 0.328125 0.484375
vt 0.328125 1
vt 0.203125 1
vt 0.203125 0.984375
vt 0.265625 0
vt 0.265625 1
vt 0.25 1
vt 0.25 0
vt 0.015625 0.8125
vt 0.015625 0.9375
vt 0 0.9375
vt 0 0.8125
vt 0.265625 0
vt 0.265625 1
vt 0.25 1
vt 0.25 0
vt 0.5 0.9375
vt 0.5 0.8125
vt 0.515625 0.8125
vt 0.515625 0.9375
vt 0.265625 0
vt 0.265625 1
vt 0.25 1
vt 0.25 0
vt 0.015625 0.9375
vt 0 0.9375
vt 0 0.8125
vt 0.265625 0
vt 0.265625 1
vt 0.25 1
vt 0.25 0
vt 0.5 0.9375
vt 0.515625 0.8125
vt 0.515625 0.9375
vt 0 0.734375
vt 1 0.734375
vt 1 0.75
vt 0 0.75
vt 0.078125 0.984375
vt 0.203125 0.984375
vt 0.203125 1
vt 0.078125 1
vt 0 0.734375
vt 1 0.734375
vt 1 0.75
vt 0 0.75
vt 0.078125 0.484375
vt 0.203125 0.484375
vt 0.203125 0.5
vt 0.078125 0.5
vn 1 0 0
vn -1 0 0
vn -0.7071067811865476 0.7071067811865476 0
vn 0 -1 0
vn 0 0 1
vn 0 0 -1
vn 0 0 1
vn 0 0 -1
vn 0 1 0
vn 0 0 1
vn 0 -1 0
vn 0 0 -1
vn 0.7071067811865476 0.7071067811865476 0
vn 0 0 1
vn 0 -1 0
vn 0 0 -1
vn 1 0 0
vn 0 0 1
vn -1 0 0
vn 0 0 -1
usemtl none
f 2/1/1 1/2/1 3/3/1 4/4/1
f 5/5/2 7/6/2 8/7/2 6/8/2
f 7/9/3 19/10/3 20/11/3 8/12/3
f 4/13/4 3/14/4 5/15/4 6/16/4
f 3/17/5 1/18/5 7/19/5 5/20/5
f 8/21/6 2/22/6 4/23/6 6/24/6
f 19/25/7 7/26/7 1/27/7
f 8/28/8 20/29/8 2/30/8
f 10/31/9 9/32/9 20/33/9 19/34/9
f 11/35/10 10/36/10 19/37/10 1/38/10
f 12/39/11 11/40/11 1/41/11 2/42/11
f 9/43/12 12/44/12 2/45/12 20/46/12
f 14/47/13 13/48/13 9/49/13 10/50/13
f 14/51/14 10/52/14 11/53/14
f 15/54/15 16/55/15 17/56/15 18/57/15
f 13/58/16 12/59/16 9/60/16
f 16/61/17 15/62/17 13/63/17 14/64/17
f 17/65/18 16/66/18 14/67/18 11/68/18
f 18/69/19 17/70/19 11/71/19 12/72/19
f 15/73/20 18/74/20 12/75/20 13/76/20