<?xml version="1.0" encoding="UTF-8"?><svg id="uuid-4444488b-d5ab-470d-b388-3b1f7ee93e91" xmlns="http://www.w3.org/2000/svg" viewBox="0 0 90 100"><g id="uuid-88fef055-1229-4638-b1ed-97cd0693f419"><polygon points="30 50 30 60 30 70 30 80 30 90 30 100 40 100 50 100 60 100 60 90 60 80 60 70 60 60 60 50 60 40 30 40 30 50" style="fill:#fff; stroke-width:0px;"/><polygon points="20 30 30 30 60 30 70 30 80 30 90 30 90 20 90 10 90 0 80 0 70 0 60 0 50 0 40 0 30 0 20 0 10 0 0 0 0 10 0 20 0 30 10 30 20 30" style="fill:#fff; stroke-width:0px;"/></g></svg>