<?xml version="1.0" encoding="UTF-8"?><svg id="uuid-2a584f8e-6f1b-44da-8aff-8883c3a6395d" xmlns="http://www.w3.org/2000/svg" viewBox="0 0 90 100"><g id="uuid-5011e355-0f52-44fd-88c3-2da2f549575e"><polygon points="80 0 70 0 60 0 60 10 60 20 60 30 60 40 50 40 40 40 30 40 30 30 30 20 30 10 30 0 20 0 10 0 0 0 0 10 0 20 0 30 0 40 0 50 0 60 0 70 0 80 0 90 0 100 10 100 20 100 30 100 30 90 30 80 30 70 30 60 40 60 50 60 60 60 60 70 60 80 60 90 60 100 70 100 80 100 90 100 90 90 90 80 90 70 90 60 90 50 90 40 90 30 90 20 90 10 90 0 80 0" style="fill:#fff; stroke-width:0px;"/></g></svg>