<?xml version="1.0" encoding="UTF-8"?><svg id="uuid-88240929-6271-4c80-b8fb-99108ee5d6b3" xmlns="http://www.w3.org/2000/svg" viewBox="0 0 90 100"><g id="uuid-35821b8e-218e-40a7-85f4-f8f2ada849f7"><polygon points="30 50 30 60 30 70 30 80 30 90 30 100 40 100 50 100 60 100 60 90 60 80 60 70 60 60 60 50 60 40 30 40 30 50" style="fill:#fff; stroke-width:0px;"/><polygon points="20 30 30 30 60 30 70 30 80 30 90 30 90 20 90 10 90 0 80 0 70 0 60 0 50 0 40 0 30 0 20 0 10 0 0 0 0 10 0 20 0 30 10 30 20 30" style="fill:#fff; stroke-width:0px;"/></g></svg>