# Made in Blockbench 4.10.4
mtllib HANDLE_v01.mtl

o handle
v 1.1875 0.125 0.1875
v 1.1875 0.125 -0.625
v 1.1875 -0.125 0.1875
v 1.1875 -0.125 -0.625
v 0.9375 0.125 0.1875
v 0.9375 0.125 -0.625
v 0.9375 -0.125 0.1875
v 0.9375 -0.125 -0.625
v 0.9375 0.125 -0.125
v 0.9375 -0.125 -0.125
v 1.1875 -0.125 -0.125
v 1.1875 0.125 -0.125
v 0.9375 0.125 -0.375
v 0.9375 -0.125 -0.375
v 1.1875 -0.125 -0.375
v 1.1875 0.125 -0.375
v -0.8125 -0.125 -0.625
v -0.8125 0.125 -0.375
v -0.8125 -0.125 -0.375
v -0.8125 0.125 -0.625
v -1.0625 -0.125 -0.625
v -1.0625 0.125 -0.375
v -1.0625 -0.125 -0.375
v -1.0625 0.125 -0.625
v -1.0625 0.125 0.1875
v -1.0625 -0.125 0.1875
v -0.8125 -0.125 0.1875
v -0.8125 0.125 0.1875
v -1.0625 0.125 -0.125
v -1.0625 -0.125 -0.125
v -0.8125 -0.125 -0.125
v -0.8125 0.125 -0.125
v 0.9375 0.125 0.125
v 0.9375 -0.125 0.125
v 1.1875 -0.125 0.125
v 1.1875 0.125 0.125
v -0.8125 0.125 0.125
v -0.8125 -0.125 0.125
v -1.0625 -0.125 0.125
v -1.0625 0.125 0.125
v 0.9375 -0.1875 0.1875
v 0.9375 -0.1875 0.125
v 1.1875 -0.1875 0.125
v 1.1875 -0.1875 0.1875
v -0.8125 0.1875 0.1875
v -1.0625 0.1875 0.125
v -0.8125 0.1875 0.125
v -1.0625 0.1875 0.1875
v 1.1875 0.1875 0.1875
v 1.1875 0.1875 0.125
v 0.9375 0.1875 0.125
v 0.9375 0.1875 0.1875
v -1.0625 -0.1875 0.1875
v -0.8125 -0.1875 0.125
v -1.0625 -0.1875 0.125
v -0.8125 -0.1875 0.1875
v -1.125 -0.1875 0.125
v -1.125 -0.1875 0.1875
v -1.125 -0.125 0.1875
v -1.125 -0.125 0.125
v -1.125 0.1875 0.1875
v -1.125 0.1875 0.125
v -1.125 0.125 0.125
v -1.125 0.125 0.1875
v 0.875 -0.1875 0.125
v 0.875 -0.1875 0.1875
v 0.875 -0.125 0.1875
v 0.875 -0.125 0.125
v 0.875 0.125 0.1875
v 0.875 0.125 0.125
v 0.875 0.1875 0.1875
v 0.875 0.1875 0.125
v -0.75 0.1875 0.125
v -0.75 0.1875 0.1875
v -0.75 0.125 0.1875
v -0.75 0.125 0.125
v -0.75 -0.125 0.1875
v -0.75 -0.125 0.125
v -0.75 -0.1875 0.1875
v -0.75 -0.1875 0.125
v 1.25 0.1875 0.125
v 1.25 0.1875 0.1875
v 1.25 0.125 0.1875
v 1.25 0.125 0.125
v 1.25 -0.125 0.1875
v 1.25 -0.125 0.125
v 1.25 -0.1875 0.1875
v 1.25 -0.1875 0.125
vt 0.375 0.90625
vt 0.3125 0.90625
vt 0.3125 0.84375
vt 0.375 0.84375
vt 0 0.484375
vt 0.0625 0.484375
vt 0.0625 0.546875
vt 0 0.546875
vt 0.5 1
vt 0.5 0.9375
vt 0.5625 0.9375
vt 0.5625 1
vt 0.65625 0.71875
vt 0.65625 0.78125
vt 0.59375 0.78125
vt 0.59375 0.71875
vt 0.46875 0.828125
vt 0.46875 0.890625
vt 0.40625 0.890625
vt 0.40625 0.828125
vt 0.0625 0.703125
vt 0 0.703125
vt 0 0.640625
vt 0.0625 0.640625
vt 0.484375 0.453125
vt 0.546875 0.453125
vt 0.546875 0.515625
vt 0.484375 0.515625
vt 0.65625 0.84375
vt 0.65625 0.90625
vt 0.59375 0.90625
vt 0.59375 0.84375
vt 0.25 0.90625
vt 0.1875 0.90625
vt 0.1875 0.84375
vt 0.25 0.84375
vt 0.5 0.875
vt 0.5 0.8125
vt 0.5625 0.8125
vt 0.5625 0.875
vt 0.484375 0.515625
vt 0.421875 0.515625
vt 0.421875 0.453125
vt 0.484375 0.453125
vt 0.59375 0.84375
vt 0.59375 0.78125
vt 0.65625 0.78125
vt 0.65625 0.84375
vt 0.25 0.84375
vt 0.3125 0.84375
vt 0.3125 0.90625
vt 0.25 0.90625
vt 0.5625 0.875
vt 0.5625 0.9375
vt 0.5 0.9375
vt 0.5 0.875
vt 0.15625 0.78125
vt 0.15625 0.71875
vt 0.59375 0.71875
vt 0.59375 0.78125
vt 0 0.625
vt 0 0.5625
vt 0.4375 0.5625
vt 0.4375 0.625
vt 0.0625 1
vt 0.0625 0.9375
vt 0.5 0.9375
vt 0.5 1
vt 0.5 0.640625
vt 0.5 0.703125
vt 0.0625 0.703125
vt 0.0625 0.640625
vt 0.09375 0.78125
vt 0.09375 0.71875
vt 0.15625 0.71875
vt 0.15625 0.78125
vt 0.21875 0.53125
vt 0.21875 0.46875
vt 0.28125 0.46875
vt 0.28125 0.53125
vt 0 1
vt 0 0.9375
vt 0.0625 0.9375
vt 0.0625 1
vt 0.5625 0.640625
vt 0.5625 0.703125
vt 0.5 0.703125
vt 0.5 0.640625
vt 0.0625 0.484375
vt 0.125 0.484375
vt 0.125 0.546875
vt 0.0625 0.546875
vt 0.15625 0.78125
vt 0.15625 0.84375
vt 0.09375 0.84375
vt 0.09375 0.78125
vt 0.125 0.46875
vt 0.0625 0.46875
vt 0.0625 0.40625
vt 0.125 0.40625
vt 0 0.9375
vt 0 0.875
vt 0.0625 0.875
vt 0.0625 0.9375
vt 0.15625 0.453125
vt 0.140625 0.453125
vt 0.140625 0.390625
vt 0.15625 0.390625
vt 0.203125 0.828125
vt 0.203125 0.8125
vt 0.265625 0.8125
vt 0.265625 0.828125
vt 0.171875 0.390625
vt 0.1875 0.390625
vt 0.1875 0.453125
vt 0.171875 0.453125
vt 0.28125 0.421875
vt 0.28125 0.4375
vt 0.21875 0.4375
vt 0.21875 0.421875
vt 0.328125 0.421875
vt 0.3125 0.421875
vt 0.3125 0.359375
vt 0.328125 0.359375
vt 0.359375 0.4375
vt 0.359375 0.421875
vt 0.421875 0.421875
vt 0.421875 0.4375
vt 0.5625 0.546875
vt 0.578125 0.546875
vt 0.578125 0.609375
vt 0.5625 0.609375
vt 0.53125 0.421875
vt 0.53125 0.4375
vt 0.46875 0.4375
vt 0.46875 0.421875
vt 0.0625 0.46875
vt 0 0.46875
vt 0 0.40625
vt 0.0625 0.40625
vt 0.15625 0.84375
vt 0.15625 0.90625
vt 0.09375 0.90625
vt 0.09375 0.84375
vt 0.125 0.484375
vt 0.1875 0.484375
vt 0.1875 0.546875
vt 0.125 0.546875
vt 0 0.875
vt 0 0.8125
vt 0.0625 0.8125
vt 0.0625 0.875
vt 0.3125 0.34375
vt 0.328125 0.34375
vt 0.328125 0.359375
vt 0.3125 0.359375
vt 0.328125 0.453125
vt 0.390625 0.453125
vt 0.390625 0.46875
vt 0.328125 0.46875
vt 0.5625 0.53125
vt 0.578125 0.53125
vt 0.578125 0.546875
vt 0.5625 0.546875
vt 0.40625 0.8125
vt 0.46875 0.8125
vt 0.46875 0.828125
vt 0.40625 0.828125
vt 0.1875 0.46875
vt 0.171875 0.46875
vt 0.171875 0.453125
vt 0.1875 0.453125
vt 0.53125 0.625
vt 0.46875 0.625
vt 0.46875 0.609375
vt 0.53125 0.609375
vt 0.15625 0.46875
vt 0.140625 0.46875
vt 0.140625 0.453125
vt 0.15625 0.453125
vt 0.28125 0.546875
vt 0.21875 0.546875
vt 0.21875 0.53125
vt 0.28125 0.53125
vt 0.578125 0.625
vt 0.5625 0.625
vt 0.5625 0.609375
vt 0.578125 0.609375
vt 0.390625 0.546875
vt 0.328125 0.546875
vt 0.328125 0.53125
vt 0.390625 0.53125
vt 0.328125 0.4375
vt 0.3125 0.4375
vt 0.3125 0.421875
vt 0.328125 0.421875
vt 0.46875 0.90625
vt 0.40625 0.90625
vt 0.40625 0.890625
vt 0.46875 0.890625
vt 0.140625 0.375
vt 0.15625 0.375
vt 0.15625 0.390625
vt 0.140625 0.390625
vt 0.46875 0.53125
vt 0.53125 0.53125
vt 0.53125 0.546875
vt 0.46875 0.546875
vt 0.171875 0.375
vt 0.1875 0.375
vt 0.1875 0.390625
vt 0.171875 0.390625
vt 0.21875 0.453125
vt 0.28125 0.453125
vt 0.28125 0.46875
vt 0.21875 0.46875
vt 0.1875 0.828125
vt 0.1875 0.8125
vt 0.203125 0.8125
vt 0.203125 0.828125
vt 0.203125 0.46875
vt 0.203125 0.453125
vt 0.21875 0.453125
vt 0.21875 0.46875
vt 0.546875 0.53125
vt 0.546875 0.546875
vt 0.53125 0.546875
vt 0.53125 0.53125
vt 0.203125 0.4375
vt 0.203125 0.421875
vt 0.21875 0.421875
vt 0.21875 0.4375
vt 0.546875 0.609375
vt 0.546875 0.625
vt 0.53125 0.625
vt 0.53125 0.609375
vt 0.203125 0.546875
vt 0.203125 0.53125
vt 0.21875 0.53125
vt 0.21875 0.546875
vt 0.546875 0.546875
vt 0.546875 0.609375
vt 0.53125 0.609375
vt 0.53125 0.546875
vt 0.203125 0.53125
vt 0.203125 0.46875
vt 0.21875 0.46875
vt 0.21875 0.53125
vt 0.34375 0.4375
vt 0.34375 0.421875
vt 0.359375 0.421875
vt 0.359375 0.4375
vt 0.390625 0.828125
vt 0.390625 0.8125
vt 0.40625 0.8125
vt 0.40625 0.828125
vt 0.40625 0.453125
vt 0.40625 0.46875
vt 0.390625 0.46875
vt 0.390625 0.453125
vt 0.40625 0.46875
vt 0.40625 0.53125
vt 0.390625 0.53125
vt 0.390625 0.46875
vt 0.390625 0.890625
vt 0.390625 0.828125
vt 0.40625 0.828125
vt 0.40625 0.890625
vt 0.453125 0.4375
vt 0.453125 0.421875
vt 0.46875 0.421875
vt 0.46875 0.4375
vt 0.40625 0.53125
vt 0.40625 0.546875
vt 0.390625 0.546875
vt 0.390625 0.53125
vt 0.390625 0.90625
vt 0.390625 0.890625
vt 0.40625 0.890625
vt 0.40625 0.90625
vt 0.296875 0.421875
vt 0.296875 0.4375
vt 0.28125 0.4375
vt 0.28125 0.421875
vt 0.296875 0.53125
vt 0.296875 0.546875
vt 0.28125 0.546875
vt 0.28125 0.53125
vt 0.453125 0.625
vt 0.453125 0.609375
vt 0.46875 0.609375
vt 0.46875 0.625
vt 0.453125 0.609375
vt 0.453125 0.546875
vt 0.46875 0.546875
vt 0.46875 0.609375
vt 0.296875 0.46875
vt 0.296875 0.53125
vt 0.28125 0.53125
vt 0.28125 0.46875
vt 0.28125 0.8125
vt 0.28125 0.828125
vt 0.265625 0.828125
vt 0.265625 0.8125
vt 0.453125 0.546875
vt 0.453125 0.53125
vt 0.46875 0.53125
vt 0.46875 0.546875
vt 0.296875 0.453125
vt 0.296875 0.46875
vt 0.28125 0.46875
vt 0.28125 0.453125
vt 0.546875 0.421875
vt 0.546875 0.4375
vt 0.53125 0.4375
vt 0.53125 0.421875
vt 0.484375 0.890625
vt 0.484375 0.90625
vt 0.46875 0.90625
vt 0.46875 0.890625
vt 0.3125 0.546875
vt 0.3125 0.53125
vt 0.328125 0.53125
vt 0.328125 0.546875
vt 0.3125 0.53125
vt 0.3125 0.46875
vt 0.328125 0.46875
vt 0.328125 0.53125
vt 0.484375 0.828125
vt 0.484375 0.890625
vt 0.46875 0.890625
vt 0.46875 0.828125
vt 0.4375 0.421875
vt 0.4375 0.4375
vt 0.421875 0.4375
vt 0.421875 0.421875
vt 0.3125 0.46875
vt 0.3125 0.453125
vt 0.328125 0.453125
vt 0.328125 0.46875
vt 0.484375 0.8125
vt 0.484375 0.828125
vt 0.46875 0.828125
vt 0.46875 0.8125
vn 1 0 0
vn -1 0 0
vn 0 1 0
vn 0 -1 0
vn 0 0 1
vn 0 0 -1
vn -1 0 0
vn 0 -1 0
vn 1 0 0
vn 0 1 0
vn -1 0 0
vn 0 -1 0
vn 1 0 0
vn 0 1 0
vn 0 -1 0
vn 0 0 1
vn 0 1 0
vn 0 0 -1
vn 0 -1 0
vn 0 0 1
vn 0 1 0
vn 0 0 -1
vn -1 0 0
vn 0 -1 0
vn 1 0 0
vn 0 1 0
vn -1 0 0
vn 0 -1 0
vn 1 0 0
vn 0 1 0
vn -1 0 0
vn 0 -1 0
vn 1 0 0
vn 0 1 0
vn 1 0 0
vn 0 -1 0
vn -1 0 0
vn 0 1 0
vn -1 0 0
vn 0 0 -1
vn 1 0 0
vn 0 0 1
vn 1 0 0
vn 0 0 -1
vn -1 0 0
vn 0 0 1
vn 1 0 0
vn 0 0 -1
vn -1 0 0
vn 0 0 1
vn -1 0 0
vn 0 0 -1
vn 1 0 0
vn 0 0 1
vn 0 -1 0
vn 0 0 1
vn 0 0 -1
vn 0 1 0
vn 0 0 -1
vn 0 0 1
vn 0 0 -1
vn 0 0 1
vn 0 -1 0
vn 0 0 1
vn 0 0 -1
vn 0 0 -1
vn 0 0 1
vn 0 1 0
vn 0 0 -1
vn 0 0 1
vn 0 1 0
vn 0 0 1
vn 0 0 -1
vn 0 0 -1
vn 0 0 1
vn 0 -1 0
vn 0 0 -1
vn 0 0 1
vn 0 1 0
vn 0 0 1
vn 0 0 -1
vn 0 0 -1
vn 0 0 1
vn 0 -1 0
vn 0 0 -1
vn 0 0 1
usemtl m_9d279386-c55f-d77e-9552-8cf613b8ec24
f 2/1/1 16/2/1 15/3/1 4/4/1
f 21/5/2 23/6/2 22/7/2 24/8/2
f 6/9/3 13/10/3 16/11/3 2/12/3
f 4/13/4 15/14/4 14/15/4 8/16/4
f 3/17/5 1/18/5 5/19/5 7/20/5
f 6/21/6 2/22/6 4/23/6 8/24/6
f 10/25/7 34/26/7 33/27/7 9/28/7
f 11/29/8 35/30/8 34/31/8 10/32/8
f 12/33/9 36/34/9 35/35/9 11/36/9
f 9/37/10 33/38/10 36/39/10 12/40/10
f 9/41/11 13/42/11 14/43/11 10/44/11
f 10/45/12 14/46/12 15/47/12 11/48/12
f 11/49/13 15/50/13 16/51/13 12/52/13
f 12/53/14 16/54/14 13/55/14 9/56/14
f 19/57/15 17/58/15 8/59/15 14/60/15
f 18/61/16 19/62/16 14/63/16 13/64/16
f 20/65/17 18/66/17 13/67/17 6/68/17
f 17/69/18 20/70/18 6/71/18 8/72/18
f 23/73/19 21/74/19 17/75/19 19/76/19
f 25/77/20 26/78/20 27/79/20 28/80/20
f 24/81/21 22/82/21 18/83/21 20/84/21
f 21/85/22 24/86/22 20/87/22 17/88/22
f 23/89/23 30/90/23 29/91/23 22/92/23
f 19/93/24 31/94/24 30/95/24 23/96/24
f 18/97/25 32/98/25 31/99/25 19/100/25
f 22/101/26 29/102/26 32/103/26 18/104/26
f 64/105/27 63/106/27 60/107/27 59/108/27
f 53/109/28 55/110/28 54/111/28 56/112/28
f 77/113/29 78/114/29 76/115/29 75/116/29
f 45/117/30 47/118/30 46/119/30 48/120/30
f 69/121/31 70/122/31 68/123/31 67/124/31
f 41/125/32 42/126/32 43/127/32 44/128/32
f 85/129/33 86/130/33 84/131/33 83/132/33
f 49/133/34 50/134/34 51/135/34 52/136/34
f 32/137/35 37/138/35 38/139/35 31/140/35
f 31/141/36 38/142/36 39/143/36 30/144/36
f 30/145/37 39/146/37 40/147/37 29/148/37
f 29/149/38 40/150/38 37/151/38 32/152/38
f 65/153/39 66/154/39 67/155/39 68/156/39
f 43/157/40 42/158/40 34/159/40 35/160/40
f 87/161/41 88/162/41 86/163/41 85/164/41
f 41/165/42 44/166/42 3/167/42 7/168/42
f 73/169/43 74/170/43 75/171/43 76/172/43
f 46/173/44 47/174/44 37/175/44 40/176/44
f 61/177/45 62/178/45 63/179/45 64/180/45
f 45/181/46 48/182/46 25/183/46 28/184/46
f 81/185/47 82/186/47 83/187/47 84/188/47
f 51/189/48 50/190/48 36/191/48 33/192/48
f 71/193/49 72/194/49 70/195/49 69/196/49
f 49/197/50 52/198/50 5/199/50 1/200/50
f 57/201/51 58/202/51 59/203/51 60/204/51
f 54/205/52 55/206/52 39/207/52 38/208/52
f 79/209/53 80/210/53 78/211/53 77/212/53
f 53/213/54 56/214/54 27/215/54 26/216/54
f 58/217/55 57/218/55 55/219/55 53/220/55
f 59/221/56 58/222/56 53/223/56 26/224/56
f 57/225/57 60/226/57 39/227/57 55/228/57
f 62/229/58 61/230/58 48/231/58 46/232/58
f 63/233/59 62/234/59 46/235/59 40/236/59
f 61/237/60 64/238/60 25/239/60 48/240/60
f 60/241/61 63/242/61 40/243/61 39/244/61
f 64/245/62 59/246/62 26/247/62 25/248/62
f 66/249/63 65/250/63 42/251/63 41/252/63
f 67/253/64 66/254/64 41/255/64 7/256/64
f 65/257/65 68/258/65 34/259/65 42/260/65
f 68/261/66 70/262/66 33/263/66 34/264/66
f 69/265/67 67/266/67 7/267/67 5/268/67
f 72/269/68 71/270/68 52/271/68 51/272/68
f 70/273/69 72/274/69 51/275/69 33/276/69
f 71/277/70 69/278/70 5/279/70 52/280/70
f 74/281/71 73/282/71 47/283/71 45/284/71
f 75/285/72 74/286/72 45/287/72 28/288/72
f 73/289/73 76/290/73 37/291/73 47/292/73
f 76/293/74 78/294/74 38/295/74 37/296/74
f 77/297/75 75/298/75 28/299/75 27/300/75
f 80/301/76 79/302/76 56/303/76 54/304/76
f 78/305/77 80/306/77 54/307/77 38/308/77
f 79/309/78 77/310/78 27/311/78 56/312/78
f 82/313/79 81/314/79 50/315/79 49/316/79
f 83/317/80 82/318/80 49/319/80 1/320/80
f 81/321/81 84/322/81 36/323/81 50/324/81
f 84/325/82 86/326/82 35/327/82 36/328/82
f 85/329/83 83/330/83 1/331/83 3/332/83
f 88/333/84 87/334/84 44/335/84 43/336/84
f 86/337/85 88/338/85 43/339/85 35/340/85
f 87/341/86 85/342/86 3/343/86 44/344/86