# Made in Blockbench 4.10.4
mtllib BUTTON_TOP.mtl

o cylinder
v 3.2381504884900407e-18 0.125 -1.3877787807814457e-17
v 3.2381504884900407e-18 0.375 -1.3877787807814457e-17
v 0.3624368670764583 0.125 0.8749999999999999
v 0.3624368670764583 0.375 0.8749999999999999
v 0.8750000000000001 0.125 0.3624368670764583
v 0.8750000000000001 0.375 0.3624368670764583
v 0.8750000000000001 0.125 -0.3624368670764582
v 0.8750000000000001 0.375 -0.3624368670764582
v 0.3624368670764584 0.125 -0.875
v 0.3624368670764584 0.375 -0.875
v -0.36243686707645817 0.125 -0.8750000000000001
v -0.36243686707645817 0.375 -0.8750000000000001
v -0.8749999999999999 0.125 -0.3624368670764587
v -0.8749999999999999 0.375 -0.3624368670764587
v -0.8750000000000001 0.125 0.3624368670764584
v -0.8750000000000001 0.375 0.3624368670764584
v -0.36243686707645884 0.125 0.8749999999999998
v -0.36243686707645884 0.375 0.8749999999999998
vt 1.0823917937402565 0.23463203468951144
vt 0.7653651891958069 1
vt 0 0.23463203468951166
vt 0 -1
vt 0.828425 -1
vt 0.828425 1
vt 0 1
vt 0 -0.08239179374025651
vt 0.7653679653104886 0.23463481080419313
vt 2.220446049250313e-16 1
vt 1 0.17157500000000003
vt 1 1
vt 0 0.5857875
vt 0 -1
vt 0.828425 -1
vt 0.828425 1
vt 0 1
vt 1 0.17157500000000003
vt 1 1
vt 0 0.5857875
vt 0 -0.08239179374025651
vt 0.7653679653104886 0.23463481080419313
vt 2.220446049250313e-16 1
vt 0 -1
vt 0.828425 -1
vt 0.828425 1
vt 0 1
vt 1.0823917937402565 0.23463203468951144
vt 0.7653651891958069 1
vt 0 0.23463203468951166
vt 0 0
vt 0.828425 0
vt 0.4142125 1
vt 0 -1
vt 0.828425 -1
vt 0.828425 1
vt 0 1
vt 0.828425 1
vt 0 1
vt 0.4142125 0
vt 0 1
vt 0.31702660454444964 0.23463203468951144
vt 1.0823917937402565 0.9999999999999998
vt 0 -1
vt 0.828425 -1
vt 0.828425 1
vt 0 1
vt 0.7653679653104885 1
vt 0 0.6829733954555499
vt 0.7653679653104888 -0.08239179374025651
vt 0 1
vt 0 0.17157500000000003
vt 1 0.5857875
vt 0 -1
vt 0.828425 -1
vt 0.828425 1
vt 0 1
vt 0 1
vt 0 0.17157500000000003
vt 1 0.5857875
vt 0.7653679653104885 1
vt 0 0.6829733954555499
vt 0.7653679653104888 -0.08239179374025651
vt 0 -1
vt 0.828425 -1
vt 0.828425 1
vt 0 1
vt 0 1
vt 0.31702660454444964 0.23463203468951144
vt 1.0823917937402565 0.9999999999999998
vt 0.828425 1
vt 0 1
vt 0.4142125 0
vt 0 -1
vt 0.828425 -1
vt 0.828425 1
vt 0 1
vt 0 0
vt 0.828425 0
vt 0.4142125 1
vn 0 -1 0
vn 0.7071067811865474 0 0.7071067811865477
vn 0 1 0
vn 0 -1 0
vn 1 0 0
vn 0 1 0
vn 0 -1 0
vn 0.7071067811865477 0 -0.7071067811865475
vn 0 1 0
vn 0 -1 0
vn 1.5316088476051033e-16 0 -1
vn 0 1 0
vn 0 -1 0
vn -0.7071067811865474 0 -0.7071067811865478
vn 0 1 0
vn 0 -1 0
vn -1 0 -3.063217695210204e-16
vn 0 1 0
vn 0 -1 0
vn -0.7071067811865477 0 0.7071067811865475
vn 0 1 0
vn 0 -1 0
vn -1.531608847605102e-16 0 1
vn 0 1 0
usemtl none
f 5/1/1 3/2/1 1/3/1
f 3/4/2 5/5/2 6/6/2 4/7/2
f 4/8/3 6/9/3 2/10/3
f 7/11/4 5/12/4 1/13/4
f 5/14/5 7/15/5 8/16/5 6/17/5
f 6/18/6 8/19/6 2/20/6
f 9/21/7 7/22/7 1/23/7
f 7/24/8 9/25/8 10/26/8 8/27/8
f 8/28/9 10/29/9 2/30/9
f 11/31/10 9/32/10 1/33/10
f 9/34/11 11/35/11 12/36/11 10/37/11
f 10/38/12 12/39/12 2/40/12
f 13/41/13 11/42/13 1/43/13
f 11/44/14 13/45/14 14/46/14 12/47/14
f 12/48/15 14/49/15 2/50/15
f 15/51/16 13/52/16 1/53/16
f 13/54/17 15/55/17 16/56/17 14/57/17
f 14/58/18 16/59/18 2/60/18
f 17/61/19 15/62/19 1/63/19
f 15/64/20 17/65/20 18/66/20 16/67/20
f 16/68/21 18/69/21 2/70/21
f 3/71/22 17/72/22 1/73/22
f 17/74/23 3/75/23 4/76/23 18/77/23
f 18/78/24 4/79/24 2/80/24